<?xml version="1.0" encoding="UTF-8"?>
<!DOCTYPE svg PUBLIC "-//W3C//DTD SVG 1.1//EN" "http://www.w3.org/Graphics/SVG/1.1/DTD/svg11.dtd">
<svg xmlns="http://www.w3.org/2000/svg" version="1.1" width="160px" height="164px" style="shape-rendering:geometricPrecision; text-rendering:geometricPrecision; image-rendering:optimizeQuality; fill-rule:evenodd; clip-rule:evenodd" xmlns:xlink="http://www.w3.org/1999/xlink">
<g><path style="opacity:0.004" fill="#59d6af" d="M 150.5,3.5 C 149.632,1.10809 150.299,0.941424 152.5,3C 151.906,3.46434 151.239,3.63101 150.5,3.5 Z"/></g>
<g><path style="opacity:0.063" fill="#27bddd" d="M 8.5,3.5 C 6.02482,3.2533 6.02482,2.58664 8.5,1.5C 9.46295,1.96983 9.46295,2.6365 8.5,3.5 Z"/></g>
<g><path style="opacity:1" fill="#11affe" d="M 12.5,-0.5 C 57.1667,-0.5 101.833,-0.5 146.5,-0.5C 144.369,0.313823 142.036,0.813823 139.5,1C 143.285,1.40739 146.952,2.24073 150.5,3.5C 151.306,4.72813 152.306,5.72813 153.5,6.5C 155.075,8.54747 156.075,10.8808 156.5,13.5C 155.744,58.1595 155.244,102.826 155,147.5C 153.5,150.333 151.333,152.5 148.5,154C 129.662,154.168 110.996,154.668 92.5,155.5C 65.1646,155.667 37.8313,155.5 10.5,155C 6.82094,152.169 4.15427,148.669 2.5,144.5C 2.17701,99.4576 2.51035,54.4576 3.5,9.5C 4.40128,8.70951 5.06795,7.70951 5.5,6.5C 6.83333,5.83333 7.83333,4.83333 8.5,3.5C 10.1789,3.10767 11.8455,2.60767 13.5,2C 49.8333,1.66667 86.1667,1.33333 122.5,1C 85.6644,0.832546 48.9977,0.332546 12.5,-0.5 Z"/></g>
<g><path style="opacity:0.035" fill="#2f745b" d="M 158.5,14.5 C 157.833,14.1667 157.167,13.8333 156.5,13.5C 156.075,10.8808 155.075,8.54747 153.5,6.5C 154.397,5.40191 155.23,5.40191 156,6.5C 157.341,9.02199 158.174,11.6887 158.5,14.5 Z"/></g>
<g><path style="opacity:0.031" fill="#1ca7ba" d="M 5.5,6.5 C 5.06795,7.70951 4.40128,8.70951 3.5,9.5C 3.5,8.83333 3.16667,8.5 2.5,8.5C 2.63216,5.99309 3.63216,5.32642 5.5,6.5 Z"/></g>
<g><path style="opacity:0.09" fill="#067b9a" d="M 156.5,13.5 C 157.167,13.8333 157.833,14.1667 158.5,14.5C 158.667,58.1679 158.5,101.835 158,145.5C 156.395,150.559 153.562,153.893 149.5,155.5C 130.5,155.5 111.5,155.5 92.5,155.5C 110.996,154.668 129.662,154.168 148.5,154C 151.333,152.5 153.5,150.333 155,147.5C 155.244,102.826 155.744,58.1595 156.5,13.5 Z"/></g>
<g><path style="opacity:0.078" fill="#0a87a9" d="M 2.5,8.5 C 3.16667,8.5 3.5,8.83333 3.5,9.5C 2.51035,54.4576 2.17701,99.4576 2.5,144.5C 0.50535,101.846 -0.161317,58.8463 0.5,15.5C 0.409526,12.8478 1.07619,10.5145 2.5,8.5 Z"/></g>
<g><path style="opacity:0.031" fill="#005a82" d="M 158.5,14.5 C 158.833,14.5 159.167,14.5 159.5,14.5C 159.5,60.1667 159.5,105.833 159.5,151.5C 156.567,158.128 151.567,162.128 144.5,163.5C 101.167,163.5 57.8333,163.5 14.5,163.5C 6.89236,162.193 1.89236,157.86 -0.5,150.5C -0.5,105.5 -0.5,60.5 -0.5,15.5C -0.166667,15.5 0.166667,15.5 0.5,15.5C -0.161317,58.8463 0.50535,101.846 2.5,144.5C 2.19607,145.15 1.86273,145.817 1.5,146.5C 2.94592,148.618 3.61258,150.951 3.5,153.5C 6.56216,154.692 9.56216,156.192 12.5,158C 57.5,158.667 102.5,158.667 147.5,158C 149.935,157.925 150.602,157.092 149.5,155.5C 153.562,153.893 156.395,150.559 158,145.5C 158.5,101.835 158.667,58.1679 158.5,14.5 Z"/></g>
<g><path style="opacity:0.275" fill="#00648f" d="M 2.5,144.5 C 4.15427,148.669 6.82094,152.169 10.5,155C 37.8313,155.5 65.1646,155.667 92.5,155.5C 111.5,155.5 130.5,155.5 149.5,155.5C 150.602,157.092 149.935,157.925 147.5,158C 102.5,158.667 57.5,158.667 12.5,158C 9.56216,156.192 6.56216,154.692 3.5,153.5C 3.61258,150.951 2.94592,148.618 1.5,146.5C 1.86273,145.817 2.19607,145.15 2.5,144.5 Z"/></g>
<g><path style="opacity:1" fill="#e9f7ff" d="M 127.5,135.5 C 128.043,135.56 128.376,135.893 128.5,136.5C 126.246,139.634 123.246,141.8 119.5,143C 106.575,146.473 93.408,147.973 80,147.5C 70.0597,147.769 60.2264,146.936 50.5,145C 71.932,146.393 93.2653,145.393 114.5,142C 117.5,141 120.5,140 123.5,139C 125.324,138.34 126.657,137.173 127.5,135.5 Z"/></g>
<g><path style="opacity:1" fill="#e8f7ff" d="M 42.5,127.5 C 45.1873,127.336 47.854,127.503 50.5,128C 46.9811,128.395 43.6478,129.395 40.5,131C 39.269,132.183 39.269,133.349 40.5,134.5C 44.0192,135.932 47.6858,136.766 51.5,137C 67.5,137.667 83.5,137.667 99.5,137C 105.226,136.323 110.893,135.323 116.5,134C 119.102,133.065 120.602,131.232 121,128.5C 123.015,130.478 122.848,132.312 120.5,134C 99.0593,141.1 77.0593,143.433 54.5,141C 49.1483,140.479 43.8149,139.813 38.5,139C 35.4119,138.421 32.7452,137.087 30.5,135C 33.7539,131.211 37.7539,128.711 42.5,127.5 Z"/></g>
<g><path style="opacity:1" fill="#f7fcff" d="M 59.5,118.5 C 60.4268,120.576 62.0935,121.743 64.5,122C 73.7615,122.956 82.9282,122.456 92,120.5C 94.517,121.507 97.017,122.674 99.5,124C 86.4209,129.201 73.0876,129.867 59.5,126C 58.1667,124.667 56.8333,123.333 55.5,122C 56.7305,120.595 58.0639,119.429 59.5,118.5 Z"/></g>
<g><path style="opacity:1" fill="#f6fcff" d="M 56.5,103.5 C 57.2389,103.369 57.9056,103.536 58.5,104C 57.1667,105.333 57.1667,106.667 58.5,108C 71.2944,110.296 83.961,109.796 96.5,106.5C 98.1667,107.667 99.8333,108.833 101.5,110C 88.3429,113.215 75.0095,114.215 61.5,113C 57.9614,112.813 54.7948,111.646 52,109.5C 52.4596,106.854 53.9596,104.854 56.5,103.5 Z"/></g>
<g><path style="opacity:1" fill="#e9f7ff" d="M 54.5,88.5 C 56.5273,88.3379 58.5273,88.5045 60.5,89C 56.6935,89.7793 53.3601,91.4459 50.5,94C 51.3279,94.9147 52.3279,95.5814 53.5,96C 70.9288,96.6596 88.2621,95.993 105.5,94C 104.672,94.9147 103.672,95.5814 102.5,96C 83.2728,99.6975 63.9395,100.364 44.5,98C 41.0847,96.8567 40.7514,95.19 43.5,93C 47.3428,91.6389 51.0094,90.1389 54.5,88.5 Z"/></g>
<g><path style="opacity:1" fill="#ebf8ff" d="M 112.5,88.5 C 120.499,85.3331 125.833,87.8331 128.5,96C 127.837,100.676 125.504,104.342 121.5,107C 117.388,109.568 113.055,111.235 108.5,112C 112.593,109.581 116.427,106.748 120,103.5C 125.266,94.4742 122.766,89.4742 112.5,88.5 Z"/></g>
<g><path style="opacity:1" fill="#f8fcff" d="M 55.5,32.5 C 77.5025,32.3334 99.5025,32.5 121.5,33C 123.848,33.3459 125.681,34.5125 127,36.5C 127.667,48.1667 127.667,59.8333 127,71.5C 126.167,72.3333 125.333,73.1667 124.5,74C 112.904,75.2696 101.238,75.9362 89.5,76C 83.0638,79.6345 76.5638,83.1345 70,86.5C 69.228,86.3552 68.5613,86.0219 68,85.5C 67.5017,82.1832 67.335,78.8499 67.5,75.5C 63.4862,75.6655 59.4862,75.4988 55.5,75C 53.4299,74.0524 51.9299,72.5524 51,70.5C 50.3333,59.5 50.3333,48.5 51,37.5C 52.025,35.313 53.525,33.6464 55.5,32.5 Z"/></g>
<g><path style="opacity:1" fill="#16b0ff" d="M 57.5,36.5 C 78.5026,36.3334 99.5026,36.5 120.5,37C 121,37.5 121.5,38 122,38.5C 122.667,48.8333 122.667,59.1667 122,69.5C 121.25,70.1258 120.416,70.6258 119.5,71C 108.833,71.3333 98.1667,71.6667 87.5,72C 82.6743,74.2455 78.0077,76.7455 73.5,79.5C 72.7864,76.9728 72.1197,74.4728 71.5,72C 66.5821,71.8052 61.7488,71.3052 57,70.5C 56.1901,59.0905 56.3568,47.7572 57.5,36.5 Z"/></g>
<g><path style="opacity:1" fill="#ecf8ff" d="M 77.5,61.5 C 82.032,61.0692 86.3654,61.5692 90.5,63C 88.3333,63.1667 86.1667,63.3333 84,63.5C 81.3897,63.4668 79.223,62.8001 77.5,61.5 Z"/></g>
<g><path style="opacity:1" fill="#edf9ff" d="M 66.5,61.5 C 69.2469,61.1866 71.9135,61.52 74.5,62.5C 73.1667,62.8333 71.8333,63.1667 70.5,63.5C 68.6672,63.4146 67.3339,62.7479 66.5,61.5 Z"/></g>
<g><path style="opacity:1" fill="#e2f5ff" d="M 106.5,56.5 C 108.288,56.2148 109.955,56.5481 111.5,57.5C 110.667,57.8333 109.833,58.1667 109,58.5C 107.624,58.3158 106.791,57.6491 106.5,56.5 Z"/></g>
<g><path style="opacity:1" fill="#e7f7ff" d="M 86.5,56.5 C 91.8746,56.1718 97.2079,56.5052 102.5,57.5C 99.8333,57.8333 97.1667,58.1667 94.5,58.5C 91.4098,58.4783 88.7432,57.8117 86.5,56.5 Z"/></g>
<g><path style="opacity:1" fill="#e7f7ff" d="M 66.5,56.5 C 71.8746,56.1718 77.2079,56.5052 82.5,57.5C 79.8333,57.8333 77.1667,58.1667 74.5,58.5C 71.4098,58.4783 68.7432,57.8117 66.5,56.5 Z"/></g>
<g><path style="opacity:1" fill="#f1faff" d="M 94.5,49.5 C 100.206,49.1712 105.872,49.5046 111.5,50.5C 108.667,50.8333 105.833,51.1667 103,51.5C 99.7485,51.4809 96.9151,50.8142 94.5,49.5 Z"/></g>
<g><path style="opacity:1" fill="#f1faff" d="M 77.5,49.5 C 82.2137,49.1734 86.8804,49.5067 91.5,50.5C 89.1667,50.8333 86.8333,51.1667 84.5,51.5C 81.7305,51.4714 79.3972,50.8048 77.5,49.5 Z"/></g>
<g><path style="opacity:1" fill="#f0faff" d="M 66.5,49.5 C 69.2469,49.1866 71.9135,49.52 74.5,50.5C 73.1667,50.8333 71.8333,51.1667 70.5,51.5C 68.6672,51.4146 67.3339,50.7479 66.5,49.5 Z"/></g>
<g><path style="opacity:1" fill="#daf3ff" d="M 103.5,44.5 C 106.247,44.1866 108.914,44.52 111.5,45.5C 110.167,45.8333 108.833,46.1667 107.5,46.5C 105.667,46.4146 104.334,45.7479 103.5,44.5 Z"/></g>
<g><path style="opacity:1" fill="#ddf4ff" d="M 83.5,44.5 C 89.1764,44.3339 94.8431,44.5006 100.5,45C 97.6911,46.1218 94.6911,46.6218 91.5,46.5C 88.4098,46.4783 85.7432,45.8117 83.5,44.5 Z"/></g>
<g><path style="opacity:1" fill="#d7f2ff" d="M 66.5,44.5 C 71.2137,44.1734 75.8804,44.5067 80.5,45.5C 78.1667,45.8333 75.8333,46.1667 73.5,46.5C 70.7305,46.4714 68.3972,45.8048 66.5,44.5 Z"/></g>
<g><path style="opacity:1" fill="#f7fcff" d="M 40.5,15.5 C 61.8359,15.3334 83.1693,15.5 104.5,16C 110.07,16.89 112.57,20.0567 112,25.5C 107.953,27.4694 105.953,26.1361 106,21.5C 105.25,20.8742 104.416,20.3742 103.5,20C 83.1667,19.3333 62.8333,19.3333 42.5,20C 42,20.5 41.5,21 41,21.5C 40.3333,32.1667 40.3333,42.8333 41,53.5C 43.0824,55.6792 42.5824,57.0126 39.5,57.5C 37.9707,57.4712 36.804,56.8045 36,55.5C 35.3333,43.5 35.3333,31.5 36,19.5C 37.3968,17.9297 38.8968,16.5964 40.5,15.5 Z"/></g>
</svg>
